<svg width="16" height="15" viewBox="0 0 16 15" fill="none" xmlns="http://www.w3.org/2000/svg">
<path fill-rule="evenodd" clip-rule="evenodd" d="M10.5223 0.0146859C10.5333 -0.000891705 10.5547 -0.00467748 10.5703 0.0062301L11.6354 0.751998C11.6509 0.762905 11.6547 0.784374 11.6438 0.799951L10.1614 2.91701C10.8821 3.14725 11.3731 3.3956 11.3731 3.3956C11.3731 3.3956 10.173 5.45991 8.13746 5.45991C6.10194 5.45991 4.65552 3.53593 4.65552 3.53593C4.65552 3.53593 5.1684 3.20862 5.92865 2.9279L4.30267 0.990164C4.29046 0.975595 4.29236 0.953877 4.30692 0.941654L5.30293 0.105898C5.31752 0.0936744 5.33923 0.0955743 5.35144 0.110142L7.41019 2.56366C7.58647 2.54372 7.76606 2.53258 7.94729 2.53258C8.20777 2.53258 8.46793 2.55238 8.7219 2.58599L10.5223 0.0146859ZM10.9251 5.55768C11.4682 5.16973 12.2902 4.15717 12.2902 4.15717C12.2902 4.15717 14.3897 5.82094 14.3897 9.34875C14.3897 12.8765 10.76 14.9998 10.76 14.9998C10.76 14.9998 9.02574 13.2484 8.6 11.0282C8.17428 8.80808 9.22976 6.34286 9.22976 6.34286C9.22976 6.34286 10.3818 5.94562 10.9251 5.55768ZM5.07497 5.55768C4.53177 5.16973 3.70982 4.15717 3.70982 4.15717C3.70982 4.15717 1.61029 5.82094 1.61029 9.34875C1.61029 12.8765 5.24006 14.9998 5.24006 14.9998C5.24006 14.9998 6.97428 13.2484 7.40003 11.0282C7.82574 8.80808 6.77026 6.34286 6.77026 6.34286C6.77026 6.34286 5.61819 5.94562 5.07497 5.55768Z" fill="white" fill-opacity="0.64"/>
</svg>
