<svg width="16" height="15" viewBox="0 0 16 15" fill="none" xmlns="http://www.w3.org/2000/svg">
<g clip-path="url(#clip0_16_98)">
<path fill-rule="evenodd" clip-rule="evenodd" d="M5.7357 14C7.93306 14 9.81427 12.7787 10.5909 11.0475C10.6004 11.0264 7.47286 11.8603 7.57259 11.5655C7.61712 11.4339 9.53431 10.7335 10.9311 9.91662C11.7339 9.44708 12.1036 8.45312 12.1036 8.45312C12.1036 8.45312 10.7511 9.10981 10.0673 9.2764C8.68941 9.61214 7.47649 9.57599 7.47649 9.54101C7.47649 9.46536 9.49051 9.08269 12.2898 7.37687C13.6065 6.57452 13.9641 5.19247 13.9641 5.19247C13.9641 5.19247 12.5165 6.05474 11.6414 6.33941C9.56612 7.0145 7.67231 7.21794 7.67231 7.12659C7.67231 6.93101 9.33893 6.47271 11.1059 5.61651C12.0247 5.17135 12.8204 4.58975 13.7424 3.94296C15.2512 2.88473 15.5 1 15.5 1C15.5 1 14.0119 1.95977 13.2857 2.2785C10.2893 3.59368 7.64343 4.28356 5.7357 4.43292C2.85594 4.65839 0.5 6.66766 0.5 9.2764C0.5 11.8852 2.8441 14 5.7357 14Z" fill="white" fill-opacity="0.64"/>
</g>
<defs>
<clipPath id="clip0_16_98">
<rect width="15" height="15" fill="white" transform="translate(0.5)"/>
</clipPath>
</defs>
</svg>
