<svg width="16" height="15" viewBox="0 0 16 15" fill="none" xmlns="http://www.w3.org/2000/svg">
<path fill-rule="evenodd" clip-rule="evenodd" d="M8.72766 7.46722C8.82932 7.40522 8.91557 7.27532 8.98512 7.13095C9.9005 7.50507 10.5438 8.38913 10.5438 9.42012C10.5438 10.7897 9.40852 11.9001 8.00813 11.9001C7.43326 11.9001 6.90308 11.7129 6.47778 11.3976C6.33826 11.3316 6.22348 11.2681 6.12955 11.2162C5.98386 11.1356 5.88832 11.0828 5.8285 11.0911C5.65363 11.1152 5.7044 11.2761 5.75054 11.4222C5.78186 11.5215 5.81107 11.614 5.76586 11.6522C5.71858 11.6921 5.56541 11.5461 5.38644 11.3754C5.14281 11.1432 4.85136 10.8653 4.71393 10.9487C4.60527 11.0147 4.71076 11.1938 4.83991 11.4129L4.84948 11.4292C4.90404 11.5218 4.96726 11.6162 5.02494 11.7022C5.14222 11.8772 5.23667 12.0181 5.18942 12.042C5.13229 12.0708 4.73426 11.8022 4.39884 11.4292C4.26938 11.2852 4.14399 11.1292 4.02744 10.9842V10.9842C3.77236 10.6668 3.55984 10.4024 3.44054 10.4337C3.29703 10.4714 3.40559 10.7674 3.56511 11.0522C3.6397 11.1855 3.72744 11.3211 3.80341 11.4386V11.4386C3.92157 11.6212 4.01124 11.7598 3.97872 11.7769C3.93484 11.7998 3.54867 11.4233 3.28639 10.9487C3.13061 10.6669 2.99979 10.3554 2.89389 10.1032C2.77905 9.82975 2.6935 9.62604 2.63716 9.60554C2.44144 9.53432 2.44144 9.93337 2.51994 10.5093C2.53018 10.5845 2.54543 10.6633 2.56421 10.7435C3.32546 13.2066 5.66397 15 8.43074 15C11.815 15 14.5585 12.3168 14.5585 9.0068C14.5585 5.85645 12.0733 3.27384 8.91569 3.03205C8.91967 2.88364 8.99713 2.58935 8.99713 2.58935C8.99713 2.58935 9.55456 1.24064 9.58404 0.952438C9.58597 0.933311 9.58828 0.912524 9.59077 0.890388C9.62549 0.578991 9.69009 0 9.19198 0C8.92597 0 8.80228 0.19789 8.6608 0.424216V0.424219C8.60649 0.511104 8.54953 0.602183 8.48092 0.687861C7.98674 1.30499 7.15576 2.07565 6.68458 2.48622C5.68866 3.35402 4.71156 4.06723 4.14167 4.48318L4.14164 4.48321C3.88245 4.67238 3.70752 4.80009 3.65338 4.85285C3.24539 5.25059 1.78254 7.88924 1.78254 7.88924C1.78254 7.88924 1.30946 8.7358 1.47761 8.90751C1.64576 9.07919 2.05126 9.03984 2.05126 9.03984C2.05126 9.03984 7.49874 7.79013 7.98645 7.69157C8.11776 7.66503 8.21045 7.64971 8.28161 7.63796C8.47483 7.60606 8.50951 7.60031 8.72766 7.46722ZM4.87609 5.86125C4.58367 6.13919 4.09872 6.80262 4.09872 6.80262C4.09872 6.80262 5.00001 6.85813 5.49639 6.38631C5.9928 5.91445 5.87907 5.11034 5.87907 5.11034C5.87907 5.11034 5.16847 5.58331 4.87609 5.86125Z" fill="white" fill-opacity="0.64"/>
</svg>
