<svg width="16" height="15" viewBox="0 0 16 15" fill="none" xmlns="http://www.w3.org/2000/svg">
<g clip-path="url(#clip0_16_104)">
<path fill-rule="evenodd" clip-rule="evenodd" d="M12.1056 7.58858C12.1048 7.58741 12.1044 7.58595 12.1046 7.58451L13.0616 2.00445C13.062 2.00188 13.0643 2 13.0669 2H13.3697C13.3721 2 13.3741 2.00151 13.3748 2.00374L15.5308 8.83001C15.5315 8.83212 15.5307 8.83446 15.529 8.83584L13.9394 10.0769C13.937 10.0788 13.9336 10.0783 13.9318 10.0759L12.1056 7.58858ZM0.5 11.2878C0.5 11.2901 0.501488 11.2921 0.503688 11.2929L3.78052 12.3643C3.7821 12.3648 3.78386 12.3645 3.78523 12.3636L11.1097 7.30695C11.1109 7.3061 11.1118 7.30479 11.112 7.30332L11.8974 2.03306C11.8979 2.02982 11.8954 2.02692 11.8921 2.02692H5.40447C5.40286 2.02692 5.40137 2.02763 5.40034 2.02885L0.501231 7.93889C0.500435 7.93985 0.5 7.94105 0.5 7.94231V11.2878ZM5.14599 12.6373L8.72586 13.8099C8.72747 13.8104 8.72926 13.8102 8.73063 13.8092L12.9927 10.752C12.9951 10.7503 12.9957 10.7471 12.9941 10.7446L11.3963 8.36706C11.3947 8.36457 11.3913 8.36393 11.3889 8.36562L5.14599 12.6373Z" fill="white" fill-opacity="0.64"/>
</g>
<defs>
<clipPath id="clip0_16_104">
<rect width="15" height="15" fill="white" transform="translate(0.5)"/>
</clipPath>
</defs>
</svg>
