<svg width="16" height="15" viewBox="0 0 16 15" fill="none" xmlns="http://www.w3.org/2000/svg">
<g clip-path="url(#clip0_16_100)">
<path fill-rule="evenodd" clip-rule="evenodd" d="M0.501497 7.46075C0.499502 7.45735 0.499501 7.45313 0.501495 7.44971L4.27329 1.0054C4.27525 1.00206 4.27886 1 4.28273 1H11.7586C11.7625 1 11.7661 1.00207 11.7681 1.00545L15.4985 7.44977C15.5005 7.45313 15.5005 7.45732 15.4985 7.46069L11.7681 13.8978C11.7661 13.9011 11.7625 13.9032 11.7586 13.9032H4.28273C4.27886 13.9032 4.27525 13.9012 4.27329 13.8978L0.501497 7.46075ZM11.4751 7.45161C11.4751 9.3702 9.91977 10.9255 8.00117 10.9255C6.08258 10.9255 4.52724 9.3702 4.52724 7.45161C4.52724 5.53299 6.08258 3.97768 8.00117 3.97768C9.91977 3.97768 11.4751 5.53299 11.4751 7.45161Z" fill="white" fill-opacity="0.64"/>
</g>
<defs>
<clipPath id="clip0_16_100">
<rect width="15" height="15" fill="white" transform="translate(0.5)"/>
</clipPath>
</defs>
</svg>
