<svg width="16" height="15" viewBox="0 0 16 15" fill="none" xmlns="http://www.w3.org/2000/svg">
<g clip-path="url(#clip0_16_114)">
<path fill-rule="evenodd" clip-rule="evenodd" d="M7.23016 13.2671C7.51513 13.3107 7.80698 13.3333 8.10417 13.3333C11.2683 13.3333 13.8333 10.7683 13.8333 7.60418C13.8333 4.44003 11.2683 1.875 8.10417 1.875C7.89189 1.875 7.68227 1.88655 7.47599 1.90905C9.04557 3.09817 10.0833 5.15807 10.0833 7.5C10.0833 9.96211 8.93632 12.1125 7.23016 13.2671ZM7.99999 15C12.1421 15 15.5 11.6421 15.5 7.5C15.5 3.35786 12.1421 0 7.99999 0C3.85785 0 0.5 3.35786 0.5 7.5C0.5 11.6421 3.85785 15 7.99999 15Z" fill="white" fill-opacity="0.64"/>
</g>
<defs>
<clipPath id="clip0_16_114">
<rect width="15" height="15" fill="white" transform="translate(0.5)"/>
</clipPath>
</defs>
</svg>
