<svg width="16" height="15" viewBox="0 0 16 15" fill="none" xmlns="http://www.w3.org/2000/svg">
<g clip-path="url(#clip0_16_112)">
<path fill-rule="evenodd" clip-rule="evenodd" d="M13.0338 11.5268C14.5486 10.3157 15.5 8.5657 15.5 6.61963C15.5 2.9637 12.1421 0 8 0C3.85786 0 0.5 2.9637 0.5 6.61963C0.5 8.49545 1.38399 10.189 2.80435 11.3936C2.71827 11.6908 2.67105 12.0141 2.67105 12.3521C2.67105 13.8145 3.5547 15 4.64475 15C5.35303 15 5.97418 14.4995 6.32237 13.7477C6.67057 14.4995 7.29172 15 8 15C8.64564 15 9.21887 14.5841 9.57895 13.9411C9.93904 14.5841 10.5123 15 11.1579 15C12.2479 15 13.1316 13.8145 13.1316 12.3521C13.1316 12.064 13.0972 11.7865 13.0338 11.5268ZM12.3421 6.75091C12.3421 8.60698 10.3539 10.1116 7.90133 10.1116C5.44874 10.1116 3.46054 8.60698 3.46054 6.75091C3.46054 4.89483 5.44874 3.39018 7.90133 3.39018C10.3539 3.39018 12.3421 4.89483 12.3421 6.75091Z" fill="white" fill-opacity="0.64"/>
</g>
<defs>
<clipPath id="clip0_16_112">
<rect width="15" height="15" fill="white" transform="translate(0.5)"/>
</clipPath>
</defs>
</svg>
