<svg width="16" height="15" viewBox="0 0 16 15" fill="none" xmlns="http://www.w3.org/2000/svg">
<path fill-rule="evenodd" clip-rule="evenodd" d="M10.8251 11.5838C11.0104 10.9061 10.6507 9.51299 10.6507 9.51299C10.6507 9.51299 10.3897 10.6479 9.98205 11.0674C9.63424 11.4252 9.20811 11.6734 8.59698 11.7386C9.09664 11.4959 9.44026 10.9898 9.44026 10.4049C9.44026 9.58386 8.76315 8.91823 7.9279 8.91823C7.09265 8.91823 6.41551 9.58386 6.41551 10.4049C6.41551 10.6292 6.46604 10.8418 6.55648 11.0325C6.03406 10.6163 5.95191 9.94904 5.95191 9.94904C5.95191 9.94904 5.36855 12.371 6.97596 13.5103C8.58333 14.6496 11.7321 13.6703 11.7321 13.6703C11.7321 13.6703 7.22601 16.8409 3.88692 13.3901C1.01058 10.4175 3.13619 6.50399 3.13619 6.50399C3.13619 6.50399 3.04439 6.86704 3.04439 7.28848C3.04439 7.70991 3.27289 8.03057 3.27289 8.03057C3.27289 8.03057 3.95448 6.59388 4.48493 6.00961C4.98696 5.45666 5.61629 5.00818 6.15986 4.62082C6.57828 4.32264 6.9459 4.06066 7.16545 3.81513C8.37474 2.46295 7.63326 0 7.63326 0C7.63326 0 8.99644 1.20176 9.37701 2.75384C9.52209 3.34547 9.42875 4.01862 9.34531 4.62059C9.20984 5.59781 9.10036 6.38745 10.079 6.33621C11.6605 6.25339 10.2862 3.81513 10.2862 3.81513C10.2862 3.81513 13.8737 5.70067 13.6057 8.99839C13.3377 12.2961 9.68442 13.0458 9.68442 13.0458C9.68442 13.0458 10.6397 12.2615 10.8251 11.5838Z" fill="white" fill-opacity="0.64"/>
</svg>
