<svg width="16" height="15" viewBox="0 0 16 15" fill="none" xmlns="http://www.w3.org/2000/svg">
<g clip-path="url(#clip0_16_110)">
<path fill-rule="evenodd" clip-rule="evenodd" d="M3.50955 11.8939L5.91547 11.1963L7.9935 14.9958C7.99622 15.0007 8.00328 15.0007 8.00598 14.9958L10.084 11.1963L12.49 11.8939C12.4953 11.8954 12.5004 11.8904 12.4987 11.885L11.801 9.52673L15.4958 7.50598C15.5007 7.50328 15.5007 7.49622 15.4958 7.49353L11.7706 5.4561L12.4987 2.99487C12.5004 2.98948 12.4953 2.98447 12.49 2.98603L10.0276 3.70002L8.00598 0.00369692C8.00328 -0.00123222 7.99622 -0.00123235 7.99353 0.0036968L5.97192 3.70002L3.50955 2.98603C3.50416 2.98447 3.49915 2.98948 3.50076 2.99487L4.22894 5.4561L0.503697 7.49353C0.498768 7.49622 0.498768 7.50328 0.503697 7.50598L4.19847 9.52673L3.50076 11.885C3.49915 11.8904 3.50416 11.8954 3.50955 11.8939ZM5.37652 7.52566L7.08099 8.45786L8.01318 10.1623C8.01588 10.1672 8.02297 10.1672 8.02566 10.1623L8.95786 8.45786L10.6623 7.52566C10.6672 7.52297 10.6672 7.51588 10.6623 7.51318L8.95786 6.58099L8.02566 4.87655C8.02297 4.8716 8.01588 4.8716 8.01318 4.87655L7.08099 6.58099L5.37652 7.51318C5.3716 7.51588 5.3716 7.52297 5.37652 7.52566Z" fill="white" fill-opacity="0.64"/>
</g>
<defs>
<clipPath id="clip0_16_110">
<rect width="15" height="15" fill="white" transform="translate(0.5)"/>
</clipPath>
</defs>
</svg>
