<svg width="16" height="15" viewBox="0 0 16 15" fill="none" xmlns="http://www.w3.org/2000/svg">
<path fill-rule="evenodd" clip-rule="evenodd" d="M3.08692 1.24704C3.26845 0.530315 3.91776 0 4.69091 0C5.27084 0 5.7811 0.29838 6.07653 0.75H6.56031C6.86087 0.441551 7.28078 0.25 7.74546 0.25C8.42673 0.25 9.01185 0.661764 9.2655 1.25H9.67053C9.92433 1.09156 10.2242 0.999999 10.5454 0.999999C11.2267 0.999999 11.8118 1.41176 12.0655 2H13.1669C13.1763 2 13.1851 2.00254 13.1927 2.00696C13.243 2.00235 13.294 2 13.3454 2C14.2592 2 15 2.74076 15 3.65455V8.6158L15 8.625L15 8.6342V8.70566C15 8.73592 14.9992 8.76606 14.9975 8.79606C14.898 12.2378 11.8032 15 7.99999 15C4.134 15 1 12.1458 1 8.625C1 6.92552 1.73022 5.38134 2.92051 4.23853C2.91754 5.89535 2.94553 7.60822 3.07453 7.57884C3.41995 7.50009 3.15007 2.36834 3.08692 1.24704Z" fill="white" fill-opacity="0.64"/>
</svg>
