<svg width="16" height="15" viewBox="0 0 16 15" fill="none" xmlns="http://www.w3.org/2000/svg">
<path fill-rule="evenodd" clip-rule="evenodd" d="M3.46288 12.8797C3.41139 12.8312 3.36047 12.7819 3.31015 12.7315C0.653372 10.0748 0.653373 5.76728 3.31015 3.11052C5.96691 0.453736 14.4324 0.276001 14.4324 0.276001C14.4324 0.276001 15.5879 10.0748 12.9312 12.7315C10.5716 15.0911 6.91003 15.3551 4.25916 13.5234L6.39514 10.9022L9.80969 10.165L7.02241 9.88639L8.79376 8.08282L10.8101 7.64111L9.2157 7.16893L10.8101 4.29268L8.54222 6.83647L7.66645 5.60064L7.97474 7.64111L6.39514 9.42183L5.66292 7.1689V10.165L3.46288 12.8797Z" fill="white" fill-opacity="0.64"/>
</svg>
