<svg width="16" height="15" viewBox="0 0 16 15" fill="none" xmlns="http://www.w3.org/2000/svg">
<path fill-rule="evenodd" clip-rule="evenodd" d="M13.8655 12.4581C13.8655 12.4581 11.9741 13.9751 8.21031 13.3474C5.35474 12.8711 3.83171 9.72326 3.83171 8.03125C3.83171 4.01962 6.80083 3.1067 8.80817 3.1067C10.8155 3.1067 12.125 5.06374 12.125 6.57897C12.125 8.0942 11.0533 9.41954 9.38549 9.41954C7.71774 9.41954 7.22379 8.24869 7.22379 7.17223C7.22379 6.09581 8.0947 5.71656 8.88897 5.71656C9.68324 5.71656 9.9552 6.39466 9.9552 6.97747C9.9552 7.5603 9.503 7.76901 9.12583 7.76901C8.74866 7.76901 8.71137 7.57873 8.56702 7.37875C8.42265 7.17879 8.75113 6.42188 8.21031 6.42188C7.66949 6.42188 7.56867 7.29203 7.56867 7.29203C7.56867 7.29203 7.76584 8.9717 9.38549 8.94273C11.0052 8.91373 11.7735 7.66158 11.5502 6.42188C11.3269 5.18215 10.1238 3.86482 8.01226 4.13101C5.90072 4.3972 5.0386 6.53072 5.41861 8.81072C5.79862 11.0907 8.53005 12.4118 10.6777 11.9365C12.8253 11.4612 14.9643 9.90645 14.9643 5.96447C14.9643 2.02245 11.5502 -0.347052 7.47929 0.0434563C3.40834 0.433962 0.881281 3.99305 1.04304 8.26937C1.20479 12.5457 5.26251 14.8747 8.69373 14.9947C12.125 15.1148 14.2284 13.1286 14.2284 13.1286C14.2284 13.1286 14.7015 12.7067 14.516 12.3773C14.3306 12.0479 13.8655 12.4581 13.8655 12.4581Z" fill="white" fill-opacity="0.64"/>
</svg>
