<svg width="16" height="15" viewBox="0 0 16 15" fill="none" xmlns="http://www.w3.org/2000/svg">
<path fill-rule="evenodd" clip-rule="evenodd" d="M12.8658 10.1518C12.8658 12.829 10.6873 14.9993 8.00002 14.9993C5.3127 14.9993 3.13422 12.829 3.13422 10.1518C3.13422 7.54802 7.73681 0.396911 7.98924 0.00667412C7.99501 -0.00222476 8.00506 -0.00222468 8.0108 0.00667421C8.26322 0.396911 12.8658 7.54802 12.8658 10.1518ZM7.1889 13.4452C4.71976 12.905 5.14228 10.1698 5.14228 10.1698C5.14228 10.1698 5.81652 11.8209 7.45272 12.3558C9.08889 12.8906 11.0662 12.1062 11.0662 12.1062C11.0662 12.1062 9.65804 13.9855 7.1889 13.4452Z" fill="white" fill-opacity="0.64"/>
</svg>
